<mxfile host="app.diagrams.net" modified="2023-10-31T13:59:06.715Z" agent="Mozilla/5.0 (X11; Linux x86_64) AppleWebKit/537.36 (KHTML, like Gecko) Chrome/118.0.0.0 Safari/537.36" etag="VSVyff8rNtcY-m4vsSXA" version="22.0.8" type="github">
  <diagram name="0001" id="y2zCg2tqc-IcQTNm7M6H">
    <mxGraphModel dx="1116" dy="505" grid="1" gridSize="10" guides="1" tooltips="1" connect="1" arrows="1" fold="1" page="1" pageScale="1" pageWidth="1169" pageHeight="827" math="0" shadow="0">
      <root>
        <mxCell id="sdHGfgtrLrPXHbDimJ2l-0" />
        <mxCell id="sdHGfgtrLrPXHbDimJ2l-1" parent="sdHGfgtrLrPXHbDimJ2l-0" />
        <mxCell id="sdHGfgtrLrPXHbDimJ2l-57" value="&lt;b style=&quot;font-size: 16px;&quot;&gt;云贸抖音供应链供货单数据拉取解决方案工作原理&lt;/b&gt;" style="text;html=1;align=left;verticalAlign=middle;resizable=0;points=[];autosize=1;strokeColor=none;fillColor=none;fontSize=16;rounded=0;labelBackgroundColor=none;" parent="sdHGfgtrLrPXHbDimJ2l-1" vertex="1">
          <mxGeometry x="40" y="20" width="380" height="30" as="geometry" />
        </mxCell>
        <mxCell id="845-0K9uOCvSD6mW0HzF-1" value="" style="edgeStyle=orthogonalEdgeStyle;rounded=0;orthogonalLoop=1;jettySize=auto;html=1;entryX=0.668;entryY=1.008;entryDx=0;entryDy=0;entryPerimeter=0;" edge="1" parent="sdHGfgtrLrPXHbDimJ2l-1" source="Le6WnlKU982UpR1vidO3-1" target="Le6WnlKU982UpR1vidO3-16">
          <mxGeometry relative="1" as="geometry" />
        </mxCell>
        <mxCell id="845-0K9uOCvSD6mW0HzF-4" value="" style="edgeStyle=orthogonalEdgeStyle;rounded=0;orthogonalLoop=1;jettySize=auto;html=1;entryX=0;entryY=0.5;entryDx=0;entryDy=0;entryPerimeter=0;" edge="1" parent="sdHGfgtrLrPXHbDimJ2l-1" source="Le6WnlKU982UpR1vidO3-1" target="845-0K9uOCvSD6mW0HzF-0">
          <mxGeometry relative="1" as="geometry">
            <mxPoint x="490.5" y="240" as="targetPoint" />
          </mxGeometry>
        </mxCell>
        <mxCell id="Le6WnlKU982UpR1vidO3-1" value="佳海爬虫" style="whiteSpace=wrap;html=1;" parent="sdHGfgtrLrPXHbDimJ2l-1" vertex="1">
          <mxGeometry x="201" y="220" width="159" height="40" as="geometry" />
        </mxCell>
        <mxCell id="Le6WnlKU982UpR1vidO3-16" value="抖音供应链管理平台-供货单" style="whiteSpace=wrap;html=1;" parent="sdHGfgtrLrPXHbDimJ2l-1" vertex="1">
          <mxGeometry x="40" y="80" width="360" height="40" as="geometry" />
        </mxCell>
        <mxCell id="845-0K9uOCvSD6mW0HzF-0" value="MongoDB" style="shape=cylinder3;whiteSpace=wrap;html=1;boundedLbl=1;backgroundOutline=1;size=15;" vertex="1" parent="sdHGfgtrLrPXHbDimJ2l-1">
          <mxGeometry x="502" y="200" width="110" height="80" as="geometry" />
        </mxCell>
        <mxCell id="845-0K9uOCvSD6mW0HzF-2" value="3、爬取供货单数据" style="text;html=1;align=center;verticalAlign=middle;resizable=0;points=[];autosize=1;strokeColor=none;fillColor=none;" vertex="1" parent="sdHGfgtrLrPXHbDimJ2l-1">
          <mxGeometry x="158.5" y="160" width="130" height="30" as="geometry" />
        </mxCell>
        <mxCell id="845-0K9uOCvSD6mW0HzF-5" value="4、存到MongoDB" style="text;html=1;align=center;verticalAlign=middle;resizable=0;points=[];autosize=1;strokeColor=none;fillColor=none;" vertex="1" parent="sdHGfgtrLrPXHbDimJ2l-1">
          <mxGeometry x="360" y="200" width="120" height="30" as="geometry" />
        </mxCell>
        <mxCell id="845-0K9uOCvSD6mW0HzF-8" value="" style="edgeStyle=orthogonalEdgeStyle;rounded=0;orthogonalLoop=1;jettySize=auto;html=1;" edge="1" parent="sdHGfgtrLrPXHbDimJ2l-1" source="845-0K9uOCvSD6mW0HzF-6">
          <mxGeometry relative="1" as="geometry">
            <mxPoint x="117.5333333333333" y="120" as="targetPoint" />
          </mxGeometry>
        </mxCell>
        <mxCell id="845-0K9uOCvSD6mW0HzF-11" value="" style="edgeStyle=orthogonalEdgeStyle;rounded=0;orthogonalLoop=1;jettySize=auto;html=1;" edge="1" parent="sdHGfgtrLrPXHbDimJ2l-1" source="845-0K9uOCvSD6mW0HzF-6">
          <mxGeometry relative="1" as="geometry">
            <mxPoint x="281" y="260" as="targetPoint" />
            <Array as="points">
              <mxPoint x="281" y="350" />
            </Array>
          </mxGeometry>
        </mxCell>
        <mxCell id="845-0K9uOCvSD6mW0HzF-14" value="" style="edgeStyle=orthogonalEdgeStyle;rounded=0;orthogonalLoop=1;jettySize=auto;html=1;entryX=0.5;entryY=1;entryDx=0;entryDy=0;entryPerimeter=0;" edge="1" parent="sdHGfgtrLrPXHbDimJ2l-1" source="845-0K9uOCvSD6mW0HzF-6" target="845-0K9uOCvSD6mW0HzF-0">
          <mxGeometry relative="1" as="geometry">
            <Array as="points">
              <mxPoint x="557" y="350" />
            </Array>
          </mxGeometry>
        </mxCell>
        <mxCell id="845-0K9uOCvSD6mW0HzF-16" value="" style="edgeStyle=orthogonalEdgeStyle;rounded=0;orthogonalLoop=1;jettySize=auto;html=1;entryX=0.545;entryY=1.042;entryDx=0;entryDy=0;entryPerimeter=0;" edge="1" parent="sdHGfgtrLrPXHbDimJ2l-1" source="845-0K9uOCvSD6mW0HzF-6" target="845-0K9uOCvSD6mW0HzF-13">
          <mxGeometry relative="1" as="geometry" />
        </mxCell>
        <mxCell id="845-0K9uOCvSD6mW0HzF-6" value="佳海RPA" style="shape=umlActor;verticalLabelPosition=bottom;verticalAlign=top;html=1;outlineConnect=0;" vertex="1" parent="sdHGfgtrLrPXHbDimJ2l-1">
          <mxGeometry x="430" y="340" width="50" height="50" as="geometry" />
        </mxCell>
        <mxCell id="845-0K9uOCvSD6mW0HzF-9" value="1、登录并获取Cookie" style="text;html=1;align=center;verticalAlign=middle;resizable=0;points=[];autosize=1;strokeColor=none;fillColor=none;" vertex="1" parent="sdHGfgtrLrPXHbDimJ2l-1">
          <mxGeometry x="120" y="320" width="140" height="30" as="geometry" />
        </mxCell>
        <mxCell id="845-0K9uOCvSD6mW0HzF-12" value="2、将Cookie写入爬虫配置文件" style="text;html=1;align=center;verticalAlign=middle;resizable=0;points=[];autosize=1;strokeColor=none;fillColor=none;" vertex="1" parent="sdHGfgtrLrPXHbDimJ2l-1">
          <mxGeometry x="280" y="300" width="190" height="30" as="geometry" />
        </mxCell>
        <mxCell id="845-0K9uOCvSD6mW0HzF-13" value="云贸内部业务平台-供货单" style="whiteSpace=wrap;html=1;" vertex="1" parent="sdHGfgtrLrPXHbDimJ2l-1">
          <mxGeometry x="520" y="80" width="360" height="40" as="geometry" />
        </mxCell>
        <mxCell id="845-0K9uOCvSD6mW0HzF-15" value="5、按任意区间取数据" style="text;html=1;align=center;verticalAlign=middle;resizable=0;points=[];autosize=1;strokeColor=none;fillColor=none;" vertex="1" parent="sdHGfgtrLrPXHbDimJ2l-1">
          <mxGeometry x="550" y="320" width="140" height="30" as="geometry" />
        </mxCell>
        <mxCell id="845-0K9uOCvSD6mW0HzF-17" value="6、推送数据" style="text;html=1;align=center;verticalAlign=middle;resizable=0;points=[];autosize=1;strokeColor=none;fillColor=none;" vertex="1" parent="sdHGfgtrLrPXHbDimJ2l-1">
          <mxGeometry x="720" y="250" width="90" height="30" as="geometry" />
        </mxCell>
      </root>
    </mxGraphModel>
  </diagram>
</mxfile>
